<svg id="visual" viewBox="0 0 900 600" width="900" height="600" xmlns="http://www.w3.org/2000/svg" xmlns:xlink="http://www.w3.org/1999/xlink" version="1.1"><g stroke-width="1" stroke-linejoin="bevel"><path d="M426.1 304L471.9 283L402.1 236Z" fill="#9865e3" stroke="#9865e3"></path><path d="M471.9 283L505.9 211L402.1 236Z" fill="#5949a6" stroke="#5949a6"></path><path d="M505.9 211L422.1 169L402.1 236Z" fill="#875ed4" stroke="#875ed4"></path><path d="M422.1 169L336.3 215L402.1 236Z" fill="#252c69" stroke="#252c69"></path><path d="M402.1 236L315.3 318L426.1 304Z" fill="#4b4297" stroke="#4b4297"></path><path d="M315.3 318L404.1 379L426.1 304Z" fill="#9865e3" stroke="#9865e3"></path><path d="M426.1 304L506.9 394L471.9 283Z" fill="#252c69" stroke="#252c69"></path><path d="M336.3 215L315.3 318L402.1 236Z" fill="#5949a6" stroke="#5949a6"></path><path d="M505.9 211L490.9 135L422.1 169Z" fill="#9865e3" stroke="#9865e3"></path><path d="M554.7 365L580.7 294L471.9 283Z" fill="#3e3b88" stroke="#3e3b88"></path><path d="M471.9 283L580.7 294L505.9 211Z" fill="#0f1d4c" stroke="#0f1d4c"></path><path d="M505.9 211L585.7 131L490.9 135Z" fill="#3e3b88" stroke="#3e3b88"></path><path d="M404.1 379L506.9 394L426.1 304Z" fill="#6850b6" stroke="#6850b6"></path><path d="M315.3 318L333.3 376L404.1 379Z" fill="#313379" stroke="#313379"></path><path d="M404.1 379L423.1 444L506.9 394Z" fill="#313379" stroke="#313379"></path><path d="M580.7 294L582.7 226L505.9 211Z" fill="#3e3b88" stroke="#3e3b88"></path><path d="M506.9 394L554.7 365L471.9 283Z" fill="#875ed4" stroke="#875ed4"></path><path d="M415.1 58L311.3 142L422.1 169Z" fill="#9865e3" stroke="#9865e3"></path><path d="M422.1 169L311.3 142L336.3 215Z" fill="#7757c5" stroke="#7757c5"></path><path d="M336.3 215L236.5 280L315.3 318Z" fill="#6850b6" stroke="#6850b6"></path><path d="M338.3 448L423.1 444L404.1 379Z" fill="#252c69" stroke="#252c69"></path><path d="M423.1 444L487.9 451L506.9 394Z" fill="#9865e3" stroke="#9865e3"></path><path d="M506.9 394L563.7 443L554.7 365Z" fill="#7757c5" stroke="#7757c5"></path><path d="M235.5 230L236.5 280L336.3 215Z" fill="#875ed4" stroke="#875ed4"></path><path d="M315.3 318L240.5 385L333.3 376Z" fill="#875ed4" stroke="#875ed4"></path><path d="M658.5 163L585.7 131L582.7 226Z" fill="#3e3b88" stroke="#3e3b88"></path><path d="M582.7 226L585.7 131L505.9 211Z" fill="#5949a6" stroke="#5949a6"></path><path d="M490.9 135L415.1 58L422.1 169Z" fill="#313379" stroke="#313379"></path><path d="M585.7 131L509.9 76L490.9 135Z" fill="#6850b6" stroke="#6850b6"></path><path d="M311.3 142L235.5 230L336.3 215Z" fill="#0f1d4c" stroke="#0f1d4c"></path><path d="M509.9 76L415.1 58L490.9 135Z" fill="#0f1d4c" stroke="#0f1d4c"></path><path d="M263.5 462L338.3 448L333.3 376Z" fill="#5949a6" stroke="#5949a6"></path><path d="M333.3 376L338.3 448L404.1 379Z" fill="#3e3b88" stroke="#3e3b88"></path><path d="M423.1 444L480.9 542L487.9 451Z" fill="#313379" stroke="#313379"></path><path d="M487.9 451L563.7 443L506.9 394Z" fill="#252c69" stroke="#252c69"></path><path d="M638.5 383L667.5 280L580.7 294Z" fill="#6850b6" stroke="#6850b6"></path><path d="M585.7 131L556.7 69L509.9 76Z" fill="#1a245b" stroke="#1a245b"></path><path d="M508.9 0L423.1 0L415.1 58Z" fill="#875ed4" stroke="#875ed4"></path><path d="M236.5 280L240.5 385L315.3 318Z" fill="#1a245b" stroke="#1a245b"></path><path d="M311.3 142L230.5 155L235.5 230Z" fill="#313379" stroke="#313379"></path><path d="M235.5 230L181.6 315L236.5 280Z" fill="#875ed4" stroke="#875ed4"></path><path d="M236.5 280L181.6 315L240.5 385Z" fill="#313379" stroke="#313379"></path><path d="M246.5 81L230.5 155L311.3 142Z" fill="#9865e3" stroke="#9865e3"></path><path d="M638.5 383L580.7 294L554.7 365Z" fill="#5949a6" stroke="#5949a6"></path><path d="M580.7 294L667.5 280L582.7 226Z" fill="#3e3b88" stroke="#3e3b88"></path><path d="M585.7 131L649.5 66L556.7 69Z" fill="#252c69" stroke="#252c69"></path><path d="M667.5 280L667.5 238L582.7 226Z" fill="#7757c5" stroke="#7757c5"></path><path d="M563.7 443L638.5 383L554.7 365Z" fill="#5949a6" stroke="#5949a6"></path><path d="M415.1 58L312.3 56L311.3 142Z" fill="#9865e3" stroke="#9865e3"></path><path d="M667.5 238L658.5 163L582.7 226Z" fill="#1a245b" stroke="#1a245b"></path><path d="M145.6 205L181.6 315L235.5 230Z" fill="#252c69" stroke="#252c69"></path><path d="M312.3 56L246.5 81L311.3 142Z" fill="#6850b6" stroke="#6850b6"></path><path d="M230.5 155L168.6 152L235.5 230Z" fill="#1a245b" stroke="#1a245b"></path><path d="M182.6 441L263.5 462L240.5 385Z" fill="#9865e3" stroke="#9865e3"></path><path d="M240.5 385L263.5 462L333.3 376Z" fill="#1a245b" stroke="#1a245b"></path><path d="M338.3 448L391.1 529L423.1 444Z" fill="#4b4297" stroke="#4b4297"></path><path d="M508.9 0L415.1 58L509.9 76Z" fill="#0f1d4c" stroke="#0f1d4c"></path><path d="M415.1 58L313.3 0L312.3 56Z" fill="#4b4297" stroke="#4b4297"></path><path d="M312.3 56L249.5 0L246.5 81Z" fill="#3e3b88" stroke="#3e3b88"></path><path d="M310.3 527L391.1 529L338.3 448Z" fill="#9865e3" stroke="#9865e3"></path><path d="M487.9 451L587.7 516L563.7 443Z" fill="#252c69" stroke="#252c69"></path><path d="M586.7 0L508.9 0L556.7 69Z" fill="#252c69" stroke="#252c69"></path><path d="M556.7 69L508.9 0L509.9 76Z" fill="#3e3b88" stroke="#3e3b88"></path><path d="M391.1 529L480.9 542L423.1 444Z" fill="#313379" stroke="#313379"></path><path d="M563.7 443L652.5 459L638.5 383Z" fill="#6850b6" stroke="#6850b6"></path><path d="M181.6 315L178.6 392L240.5 385Z" fill="#4b4297" stroke="#4b4297"></path><path d="M173.6 67L168.6 152L230.5 155Z" fill="#313379" stroke="#313379"></path><path d="M181.6 315L71.8 378L178.6 392Z" fill="#4b4297" stroke="#4b4297"></path><path d="M423.1 0L313.3 0L415.1 58Z" fill="#0f1d4c" stroke="#0f1d4c"></path><path d="M246.5 81L173.6 67L230.5 155Z" fill="#252c69" stroke="#252c69"></path><path d="M744.4 155L649.5 66L658.5 163Z" fill="#313379" stroke="#313379"></path><path d="M658.5 163L649.5 66L585.7 131Z" fill="#9865e3" stroke="#9865e3"></path><path d="M232.5 533L310.3 527L263.5 462Z" fill="#1a245b" stroke="#1a245b"></path><path d="M263.5 462L310.3 527L338.3 448Z" fill="#1a245b" stroke="#1a245b"></path><path d="M391.1 529L398.1 600L480.9 542Z" fill="#0f1d4c" stroke="#0f1d4c"></path><path d="M587.7 516L652.5 459L563.7 443Z" fill="#875ed4" stroke="#875ed4"></path><path d="M638.5 383L717.4 366L667.5 280Z" fill="#6850b6" stroke="#6850b6"></path><path d="M168.6 152L145.6 205L235.5 230Z" fill="#4b4297" stroke="#4b4297"></path><path d="M480.9 542L587.7 516L487.9 451Z" fill="#0f1d4c" stroke="#0f1d4c"></path><path d="M652.5 459L717.4 366L638.5 383Z" fill="#7757c5" stroke="#7757c5"></path><path d="M667.5 280L746.4 223L667.5 238Z" fill="#875ed4" stroke="#875ed4"></path><path d="M667.5 238L746.4 223L658.5 163Z" fill="#9865e3" stroke="#9865e3"></path><path d="M649.5 66L586.7 0L556.7 69Z" fill="#875ed4" stroke="#875ed4"></path><path d="M178.6 392L182.6 441L240.5 385Z" fill="#4b4297" stroke="#4b4297"></path><path d="M82.8 436L182.6 441L178.6 392Z" fill="#0f1d4c" stroke="#0f1d4c"></path><path d="M753.4 293L746.4 223L667.5 280Z" fill="#4b4297" stroke="#4b4297"></path><path d="M717.4 366L753.4 293L667.5 280Z" fill="#5949a6" stroke="#5949a6"></path><path d="M313.3 0L249.5 0L312.3 56Z" fill="#5949a6" stroke="#5949a6"></path><path d="M249.5 0L173.6 67L246.5 81Z" fill="#3e3b88" stroke="#3e3b88"></path><path d="M73.8 147L90.8 209L145.6 205Z" fill="#1a245b" stroke="#1a245b"></path><path d="M746.4 223L744.4 155L658.5 163Z" fill="#5949a6" stroke="#5949a6"></path><path d="M649.5 66L645.5 0L586.7 0Z" fill="#5949a6" stroke="#5949a6"></path><path d="M755.4 62L744.4 155L817.2 151Z" fill="#313379" stroke="#313379"></path><path d="M584.7 600L635.5 528L587.7 516Z" fill="#9865e3" stroke="#9865e3"></path><path d="M587.7 516L635.5 528L652.5 459Z" fill="#6850b6" stroke="#6850b6"></path><path d="M652.5 459L747.4 448L717.4 366Z" fill="#9865e3" stroke="#9865e3"></path><path d="M724.4 0L645.5 0L649.5 66Z" fill="#875ed4" stroke="#875ed4"></path><path d="M182.6 441L232.5 533L263.5 462Z" fill="#9865e3" stroke="#9865e3"></path><path d="M337.3 600L398.1 600L391.1 529Z" fill="#6850b6" stroke="#6850b6"></path><path d="M337.3 600L391.1 529L310.3 527Z" fill="#252c69" stroke="#252c69"></path><path d="M480.9 542L509.9 600L587.7 516Z" fill="#7757c5" stroke="#7757c5"></path><path d="M398.1 600L509.9 600L480.9 542Z" fill="#1a245b" stroke="#1a245b"></path><path d="M73.8 147L145.6 205L168.6 152Z" fill="#7757c5" stroke="#7757c5"></path><path d="M145.6 205L66.8 288L181.6 315Z" fill="#4b4297" stroke="#4b4297"></path><path d="M256.5 600L337.3 600L310.3 527Z" fill="#3e3b88" stroke="#3e3b88"></path><path d="M740.4 517L747.4 448L652.5 459Z" fill="#4b4297" stroke="#4b4297"></path><path d="M717.4 366L828.2 313L753.4 293Z" fill="#9865e3" stroke="#9865e3"></path><path d="M90.8 209L66.8 288L145.6 205Z" fill="#3e3b88" stroke="#3e3b88"></path><path d="M182.6 441L148.6 541L232.5 533Z" fill="#9865e3" stroke="#9865e3"></path><path d="M509.9 600L584.7 600L587.7 516Z" fill="#3e3b88" stroke="#3e3b88"></path><path d="M635.5 528L740.4 517L652.5 459Z" fill="#5949a6" stroke="#5949a6"></path><path d="M249.5 0L170.6 0L173.6 67Z" fill="#4b4297" stroke="#4b4297"></path><path d="M89.8 79L73.8 147L168.6 152Z" fill="#252c69" stroke="#252c69"></path><path d="M817.2 151L744.4 155L746.4 223Z" fill="#252c69" stroke="#252c69"></path><path d="M744.4 155L755.4 62L649.5 66Z" fill="#875ed4" stroke="#875ed4"></path><path d="M89.8 79L168.6 152L173.6 67Z" fill="#9865e3" stroke="#9865e3"></path><path d="M90.8 209L0 243L66.8 288Z" fill="#6850b6" stroke="#6850b6"></path><path d="M66.8 288L71.8 378L181.6 315Z" fill="#9865e3" stroke="#9865e3"></path><path d="M166.6 600L256.5 600L232.5 533Z" fill="#1a245b" stroke="#1a245b"></path><path d="M232.5 533L256.5 600L310.3 527Z" fill="#1a245b" stroke="#1a245b"></path><path d="M170.6 0L89.8 79L173.6 67Z" fill="#875ed4" stroke="#875ed4"></path><path d="M755.4 62L724.4 0L649.5 66Z" fill="#3e3b88" stroke="#3e3b88"></path><path d="M71.8 378L82.8 436L178.6 392Z" fill="#4b4297" stroke="#4b4297"></path><path d="M837.2 372L828.2 313L717.4 366Z" fill="#1a245b" stroke="#1a245b"></path><path d="M753.4 293L832.2 224L746.4 223Z" fill="#7757c5" stroke="#7757c5"></path><path d="M660.5 600L740.4 517L635.5 528Z" fill="#3e3b88" stroke="#3e3b88"></path><path d="M747.4 448L803.2 431L717.4 366Z" fill="#7757c5" stroke="#7757c5"></path><path d="M832.2 224L817.2 151L746.4 223Z" fill="#6850b6" stroke="#6850b6"></path><path d="M755.4 62L824.2 0L724.4 0Z" fill="#313379" stroke="#313379"></path><path d="M828.2 313L832.2 224L753.4 293Z" fill="#5949a6" stroke="#5949a6"></path><path d="M82.8 436L148.6 541L182.6 441Z" fill="#875ed4" stroke="#875ed4"></path><path d="M810.2 525L803.2 431L747.4 448Z" fill="#9865e3" stroke="#9865e3"></path><path d="M584.7 600L660.5 600L635.5 528Z" fill="#1a245b" stroke="#1a245b"></path><path d="M803.2 431L837.2 372L717.4 366Z" fill="#6850b6" stroke="#6850b6"></path><path d="M828.2 313L900 230L832.2 224Z" fill="#252c69" stroke="#252c69"></path><path d="M81.8 600L166.6 600L148.6 541Z" fill="#252c69" stroke="#252c69"></path><path d="M148.6 541L166.6 600L232.5 533Z" fill="#4b4297" stroke="#4b4297"></path><path d="M0 143L90.8 209L73.8 147Z" fill="#5949a6" stroke="#5949a6"></path><path d="M0 143L0 243L90.8 209Z" fill="#875ed4" stroke="#875ed4"></path><path d="M66.8 288L0 364L71.8 378Z" fill="#4b4297" stroke="#4b4297"></path><path d="M71.8 378L0 461L82.8 436Z" fill="#5949a6" stroke="#5949a6"></path><path d="M0 243L0 293L66.8 288Z" fill="#9865e3" stroke="#9865e3"></path><path d="M82.8 436L62.8 544L148.6 541Z" fill="#3e3b88" stroke="#3e3b88"></path><path d="M900 139L830.2 72L817.2 151Z" fill="#7757c5" stroke="#7757c5"></path><path d="M817.2 151L830.2 72L755.4 62Z" fill="#875ed4" stroke="#875ed4"></path><path d="M900 139L817.2 151L832.2 224Z" fill="#875ed4" stroke="#875ed4"></path><path d="M0 293L0 364L66.8 288Z" fill="#3e3b88" stroke="#3e3b88"></path><path d="M89.8 79L0 143L73.8 147Z" fill="#0f1d4c" stroke="#0f1d4c"></path><path d="M0 60L0 143L89.8 79Z" fill="#252c69" stroke="#252c69"></path><path d="M900 437L900 381L837.2 372Z" fill="#5949a6" stroke="#5949a6"></path><path d="M740.4 517L810.2 525L747.4 448Z" fill="#6850b6" stroke="#6850b6"></path><path d="M660.5 600L741.4 600L740.4 517Z" fill="#5949a6" stroke="#5949a6"></path><path d="M170.6 0L61.8 0L89.8 79Z" fill="#1a245b" stroke="#1a245b"></path><path d="M741.4 600L810.2 525L740.4 517Z" fill="#313379" stroke="#313379"></path><path d="M900 314L828.2 313L837.2 372Z" fill="#875ed4" stroke="#875ed4"></path><path d="M900 314L900 230L828.2 313Z" fill="#1a245b" stroke="#1a245b"></path><path d="M0 461L62.8 544L82.8 436Z" fill="#5949a6" stroke="#5949a6"></path><path d="M900 381L900 314L837.2 372Z" fill="#7757c5" stroke="#7757c5"></path><path d="M900 57L824.2 0L830.2 72Z" fill="#875ed4" stroke="#875ed4"></path><path d="M830.2 72L824.2 0L755.4 62Z" fill="#7757c5" stroke="#7757c5"></path><path d="M0 364L0 461L71.8 378Z" fill="#875ed4" stroke="#875ed4"></path><path d="M61.8 0L0 60L89.8 79Z" fill="#5949a6" stroke="#5949a6"></path><path d="M900 437L837.2 372L803.2 431Z" fill="#6850b6" stroke="#6850b6"></path><path d="M900 230L900 139L832.2 224Z" fill="#313379" stroke="#313379"></path><path d="M0 600L81.8 600L62.8 544Z" fill="#0f1d4c" stroke="#0f1d4c"></path><path d="M62.8 544L81.8 600L148.6 541Z" fill="#252c69" stroke="#252c69"></path><path d="M900 532L900 437L810.2 525Z" fill="#0f1d4c" stroke="#0f1d4c"></path><path d="M810.2 525L900 437L803.2 431Z" fill="#4b4297" stroke="#4b4297"></path><path d="M0 461L0 514L62.8 544Z" fill="#0f1d4c" stroke="#0f1d4c"></path><path d="M61.8 0L0 0L0 60Z" fill="#7757c5" stroke="#7757c5"></path><path d="M900 139L900 57L830.2 72Z" fill="#4b4297" stroke="#4b4297"></path><path d="M741.4 600L835.2 600L810.2 525Z" fill="#1a245b" stroke="#1a245b"></path><path d="M900 57L900 0L824.2 0Z" fill="#3e3b88" stroke="#3e3b88"></path><path d="M835.2 600L900 532L810.2 525Z" fill="#7757c5" stroke="#7757c5"></path><path d="M0 514L0 600L62.8 544Z" fill="#252c69" stroke="#252c69"></path><path d="M835.2 600L900 600L900 532Z" fill="#6850b6" stroke="#6850b6"></path></g></svg>